PathFileType	4	(X/Y/Z)	Run_200 02
DataRate	CameraRate	NumFrames	NumMarkers	Units	OrigDataRate	OrigDataStartFrame	OrigNumFrames
120	120	4	42	mm	120	343	128
Frame#	Time	LASI			RASI			LPSI			RPSI			RTH1			RTH2			RTH3			LTH1			LTH2			LTH3			RTB1			RTB2			RTB3			LTB1			LTB2			LTB3			RCAL			RTOE			RMT5			LCAL			LTOE			LMT5			LACR			RACR			CLAV			C7			RUA1			RUA2			RUA3			RLEL			RMEL			LUA1			LUA2			LUA3			LLEL			LMEL			RFAsuperior			RFAradius			RFAulna			LFAsuperior			LFAradius			LFAulna		
		X1	Y1	Z1	X2	Y2	Z2	X3	Y3	Z3	X4	Y4	Z4	X5	Y5	Z5	X6	Y6	Z6	X7	Y7	Z7	X8	Y8	Z8	X9	Y9	Z9	X10	Y10	Z10	X11	Y11	Z11	X12	Y12	Z12	X13	Y13	Z13	X14	Y14	Z14	X15	Y15	Z15	X16	Y16	Z16	X17	Y17	Z17	X18	Y18	Z18	X19	Y19	Z19	X20	Y20	Z20	X21	Y21	Z21	X22	Y22	Z22	X23	Y23	Z23	X24	Y24	Z24	X25	Y25	Z25	X26	Y26	Z26	X27	Y27	Z27	X28	Y28	Z28	X29	Y29	Z29	X30	Y30	Z30	X31	Y31	Z31	X32	Y32	Z32	X33	Y33	Z33	X34	Y34	Z34	X35	Y35	Z35	X36	Y36	Z36	X37	Y37	Z37	X38	Y38	Z38	X39	Y39	Z39	X40	Y40	Z40	X41	Y41	Z41	X42	Y42	Z42	

343	  2.858333	895.508704	1087.528498	-443.109863	883.247719	1092.897363	-181.634974	712.640495	1131.331832	-365.255704	708.211256	1127.521366	-282.268812	789.799323	917.009569	-139.196246	819.871642	802.234597	-155.296203	724.597299	703.953317	-186.224833	891.572155	887.428430	-489.665596	998.938210	803.582339	-471.651232	978.661781	677.442851	-448.667341	700.643834	399.453488	-274.512396	654.213348	345.063646	-210.452392	615.124745	255.959580	-281.344445	1033.211891	457.549382	-381.631805	974.676416	387.116293	-436.628170	946.034269	275.487270	-372.492821	442.206639	160.125369	-294.779788	655.966563	 64.615640	-309.772747	582.267566	 59.121368	-220.445614	793.178552	181.664721	-359.636209	1013.072065	100.984095	-354.810907	935.924987	 92.701494	-437.957206	888.846732	1560.178475	-489.413263	924.703477	1564.230501	-152.136427	954.176848	1504.817226	-293.314111	832.459490	1595.771220	-308.545369	919.364330	1465.677205	-70.266890	928.391529	1375.745159	-71.668605	867.644875	1367.479115	-20.694918	874.884169	1236.155315	 34.915634	828.740251	1213.455432	-34.161716	833.058808	1496.667648	-563.973833	817.348987	1426.715459	-567.771794	723.637933	1453.947001	-547.940841	645.249955	1317.327630	-617.753545	606.111212	1320.244102	-539.581697	974.372828	1251.957427	 -7.385925	1084.276726	1286.702005	-142.056544	1109.094012	1230.888686	-101.004864	733.393531	1275.852634	-600.709166	872.070302	1228.652289	-490.166049	850.696942	1169.081612	-525.364130	
344	  2.866667	896.955827	1093.212718	-443.458616	885.397359	1096.644575	-181.268757	714.395667	1136.089364	-364.712446	710.357632	1132.025002	-281.637703	790.310638	921.357988	-139.387611	818.087168	806.263836	-155.975667	720.210042	709.713647	-185.245160	891.414419	891.898376	-489.828735	997.434590	807.008406	-472.748547	976.128052	680.760990	-448.646585	690.733466	404.944222	-273.269426	643.264538	351.256717	-209.330057	604.573058	261.895729	-280.175896	1037.838797	459.995149	-381.111494	984.696552	385.574646	-436.573206	961.870509	273.007490	-371.703620	432.261303	169.588218	-294.696390	641.208764	 63.935784	-309.016817	567.175349	 61.499100	-220.601286	814.884409	169.789677	-361.182007	1039.269846	103.438119	-349.672869	964.842164	 88.378086	-434.068792	889.034383	1564.993864	-489.919583	926.109481	1569.883588	-153.335882	954.727137	1509.868731	-294.225810	833.172130	1600.486689	-308.939378	920.974766	1471.949121	-70.918940	930.391486	1381.968782	-72.396275	869.485154	1373.506652	-21.619671	877.675142	1241.867399	 33.841034	831.040186	1219.093780	-34.968927	832.460101	1502.505840	-563.699475	815.883861	1433.016463	-567.690244	722.622102	1461.313859	-545.876976	641.341698	1326.002533	-615.761278	604.497303	1328.970459	-537.389622	976.205444	1260.180650	 -9.659809	1082.600237	1299.119749	-146.083027	1109.710949	1243.628582	-105.550617	729.503008	1284.154816	-599.649934	869.649349	1236.626892	-491.213244	847.290819	1176.972850	-525.433939	
345	  2.875000	898.553970	1098.408355	-443.742493	887.524078	1100.108953	-181.009835	716.227619	1140.414568	-364.354339	712.481563	1136.246762	-281.117162	791.111691	925.506832	-139.475093	816.762511	810.114259	-156.424061	716.550725	715.318556	-184.141352	891.218296	895.627741	-489.772018	995.955359	809.662857	-473.776993	973.356120	683.343835	-448.784480	681.759175	410.519545	-272.110677	633.280358	357.534750	-208.094591	594.833978	267.853265	-278.862195	1041.678840	462.035722	-380.439407	994.237572	384.066839	-436.443978	976.994108	270.874485	-370.801781	423.176091	179.234521	-294.364475	626.474358	 63.291538	-308.414086	552.324444	 63.986185	-220.588587	836.451112	158.424636	-362.931153	1064.292575	107.116599	-344.310604	993.327221	 85.437466	-429.863695	889.485547	1569.431176	-490.449534	927.276694	1575.136554	-154.432601	955.209460	1514.550305	-295.002903	833.840618	1604.918490	-309.431172	922.343710	1477.774672	-71.511712	932.081538	1387.757870	-72.978834	870.956376	1379.102675	-22.477747	880.073098	1247.139200	 32.760638	832.917139	1224.338784	-35.771233	832.248403	1507.673250	-563.499899	814.828147	1438.616950	-567.547258	722.041273	1468.040370	-544.082848	637.960084	1333.983183	-613.703679	603.553088	1336.968045	-535.243723	977.601951	1267.780361	-11.951712	1080.567955	1310.526572	-150.083658	1109.822215	1255.522794	-109.751987	726.032040	1291.748051	-598.366927	867.603636	1243.874491	-491.991008	844.270316	1184.116392	-525.218735	
346	  2.883333	900.247762	1102.989900	-443.941259	889.672752	1103.177360	-180.885952	718.154895	1144.325241	-364.153385	714.628021	1140.081714	-280.745674	792.099014	929.348340	-139.493363	815.786586	813.691505	-156.663782	713.601108	720.659209	-183.004988	891.160586	898.892432	-489.867007	994.692127	811.574175	-474.665128	970.517803	685.140931	-449.169482	673.779803	416.054722	-271.042474	624.361933	363.791559	-206.755487	585.942954	273.731711	-277.471920	1044.809293	463.676111	-379.839606	1003.129748	382.653179	-436.294329	991.236544	269.100898	-369.788094	414.973876	189.021345	-293.790616	611.735170	 62.798418	-307.922758	537.724857	 66.658592	-220.432940	857.681336	147.746913	-364.685668	1087.810056	111.853209	-338.865541	1020.907008	 83.955016	-425.548758	890.152629	1573.439860	-490.975707	928.193394	1579.934138	-155.453072	955.626547	1518.821682	-295.658038	834.453196	1608.986614	-310.020730	923.479159	1483.071909	-72.114426	933.462057	1393.034737	-73.472127	872.141390	1384.193335	-23.242138	882.061272	1251.946274	 31.672991	834.341634	1229.163055	-36.568554	832.371069	1512.209156	-563.458624	814.136489	1443.511725	-567.425717	721.874401	1474.069049	-542.590361	635.130752	1341.150529	-611.717923	602.671165	1344.191869	-533.075810	978.561872	1274.706242	-14.257812	1078.252534	1320.855145	-154.010598	1109.443436	1266.418040	-113.684534	723.051019	1298.620566	-597.174701	866.001040	1250.386514	-492.635756	841.716723	1190.481683	-524.792055	
